<?xml version="1.0" encoding="UTF-8"?>
<svg id="Camada_1" xmlns="http://www.w3.org/2000/svg" version="1.1" viewBox="0 0 28 30">
  <!-- Generator: Adobe Illustrator 30.2.1, SVG Export Plug-In . SVG Version: 2.1.1 Build 1)  -->
  <defs>
    <style>
      .st0 {
        fill: #1b1c1c;
        fill-rule: evenodd;
      }
    </style>
  </defs>
  <g id="Page-1">
    <g id="GymRats">
      <path id="Fill-4" class="st0" d="M3.28,16.8c.03-3.3,2.63-5.78,3.95-8.69,1.11-2.43,1.32-6.13-1.5-7.44,1.23.91,1.68,2.19,1.8,2.71.85,3.88-3.16,7.44-4.61,10.62-1.02,2.25-1.83,7.27,4.92,12.17-.37-.74-.88-1.3-.9-2.37-1.61-.81-3.68-5.22-3.66-7"/>
      <path id="Fill-5" class="st0" d="M20.72,5.34s-.04.1-.07.14c.04-.34-.16-.68-.5-.8-.34-.12-.71.02-.89.32,0-.05.02-.1.04-.15.14-.39.56-.6.95-.46.39.13.6.56.46.95ZM23.18,23.2c2.16-.33,3.64-2.35,3.3-4.5-.2-1.26-.97-2.29-2.01-2.85,1.23.51,2.18,1.63,2.4,3.04.33,2.15-1.14,4.16-3.3,4.5-.89.14-1.77-.04-2.5-.44.65.27,1.37.37,2.11.25ZM27.81,9.2c-.18-.16-.29-.39-.29-.64,0-.34.19-.63.47-.77-2.07-1.46-3.63-3.14-5.22-4.33-.63-.48-1.41-1.05-2.01-1.31-.4-.17-1.05-.3-1.45-.38,0-2.47-2.9-2.22-2.83-.13-.6-.46-.64-.85-1.49-1.25-3.12-1.43-4.76,3.14-1.34,4.54-4.17,3.18-8.94,6.84-7.21,12.74.13.45.34.95.69,1.57.84,2.05-.32,4.13,1.77,6.41.89.98,2.09,1.45,3.81,2.84,2.69,2.19,5.6-1.52,8.33-4.54.54.21,1.13.32,1.75.32,2.71,0,4.91-2.19,4.91-4.89s-2.2-4.89-4.91-4.89-4.91,2.19-4.91,4.89c0,.64.13,1.26.35,1.82-.87.28-1.6.73-2.04,1.21-.34.53-.02-.43.03-.98.67-2.23-1.16-2.97-1.98-3.36,1.85-2.1,1.4-3.83.2-5.28.45.23.84.56,1.16,1.02h-.06s.04.05.05.07c.78.95.44,2.74.13,3.78.57.51,1.29,1.04,1.44,2.67-.15-2.37.45-4,2.25-5.43-.53-1.96-1.96-2.27-1.31-3.54.05-.23,1.01-.96,1.09-.98,1.52-.34,4.14.55,5.07-.01-.74-.34-1.26-.86-1.33-1.68,1.49,1.26,3.08,1.72,4.88.47h0Z"/>
      <path id="Fill-6" class="st0" d="M.02,15.61s.05.05.05.05l-.05-.05"/>
    </g>
  </g>
</svg>